# xmcd
#
# Track frame offsets: 
#        182
#        11342
#        27297
#        41575
#        54785
#        66835
#        78267
#        89650
#        100227
#        112672
#        121445
#        132382
#        145582
#        161420
#        172442
#        183757
#        194227
#        210237
#        223722
#        237152
#
# Disc length: 3476 seconds
#
# Revision: 3
# Processed by: cddbd v1.5.2PL0 Copyright (c) Steve Scherf et al.
# Submitted via: ExactAudioCopy v0.99pb5
#
DISCID=110d9214
DTITLE=John Lee Hooker - Very Best of D2
DYEAR=1995
DGENRE=Blues
TTITLE0=No Shoes
TTITLE1=Dirty Ground Hog
TTITLE2=Hobo Blues (aka The Hobo) live
TTITLE3=John Lee Hooker - I'm Goin' Upstairs
TTITLE4=I'm Mad Agagin
TTITLE5=What Do You Say
TTITLE6=Boom Boom
TTITLE7=She's Mine
TTITLE8=Drug Store Woman
TTITLE9=You Know I love You
TTITLE10=Send Me Your Pillow
TTITLE11=Don't Look Back
TTITLE12=One Way Ticket
TTITLE13=Bottle Up And Go
TTITLE14=This Is Hip
TTITLE15=Big Legs, Tight Skirt
TTITLE16=It Serves Me Right To Suffer
TTITLE17=Stella Mae
TTITLE18=One Bourbon, One Scotch, One Beer
TTITLE19=The Waterfront
EXTD=
EXTT0=
EXTT1=
EXTT2=
EXTT3=
EXTT4=
EXTT5=
EXTT6=
EXTT7=
EXTT8=
EXTT9=
EXTT10=
EXTT11=
EXTT12=
EXTT13=
EXTT14=
EXTT15=
EXTT16=
EXTT17=
EXTT18=
EXTT19=
PLAYORDER=
